<svg xmlns="http://www.w3.org/2000/svg" width="2048" height="1280" viewBox="0 0 2048 1280">
  <defs>
    <filter id="shadow" x="-20%" y="-20%" width="140%" height="140%">
      <feDropShadow dx="0" dy="16" stdDeviation="22" flood-color="#17314f" flood-opacity="0.18"/>
    </filter>
    <linearGradient id="blue" x1="0" y1="0" x2="1" y2="1">
      <stop offset="0" stop-color="#13aee8"/>
      <stop offset="1" stop-color="#087fc1"/>
    </linearGradient>
    <style>
      text { font-family: -apple-system, BlinkMacSystemFont, "Segoe UI", "PingFang SC", "Microsoft YaHei", sans-serif; fill: #14223a; letter-spacing: 0; }
      .muted { fill: #65748c; }
      .tiny { font-size: 20px; font-weight: 650; }
      .small { font-size: 24px; font-weight: 700; }
      .body { font-size: 28px; font-weight: 700; }
      .title { font-size: 36px; font-weight: 850; }
      .brand { font-size: 42px; font-weight: 900; }
      .label { font-size: 25px; font-weight: 850; }
      .card-title { font-size: 31px; font-weight: 880; }
      .button { font-size: 27px; font-weight: 850; }
      .badge { font-size: 22px; font-weight: 850; }
      .mono { font-family: ui-monospace, SFMono-Regular, Menlo, Monaco, Consolas, monospace; font-size: 22px; font-weight: 650; }
    </style>
  </defs>

  <rect width="2048" height="1280" rx="20" fill="#e9eef5"/>
  <g filter="url(#shadow)">
    <rect x="24" y="24" width="2000" height="1232" rx="20" fill="#f4f7fb" stroke="#d9e2ec"/>
  </g>

  <rect x="24" y="24" width="2000" height="44" rx="20" fill="#fbfcfe"/>
  <rect x="24" y="48" width="2000" height="20" fill="#fbfcfe"/>
  <line x1="24" y1="68" x2="2024" y2="68" stroke="#dfe7f0"/>
  <circle cx="46" cy="46" r="10" fill="#ff5f57"/>
  <circle cx="78" cy="46" r="10" fill="#febc2e"/>
  <circle cx="110" cy="46" r="10" fill="#28c840"/>
  <text x="150" y="53" class="small" fill="#4c5a70">Translator</text>

  <rect x="24" y="69" width="430" height="1187" fill="#fbfdff"/>
  <line x1="454" y1="69" x2="454" y2="1256" stroke="#d5e1ef"/>
  <text x="58" y="126" class="brand">Translator</text>
  <text x="58" y="182" class="body muted">by OA | V5.0</text>

  <g>
    <rect x="58" y="220" width="354" height="58" rx="8" fill="#ffffff" stroke="#b9cbe0"/>
    <text x="90" y="258" class="button">Excel 翻译</text>
    <rect x="58" y="300" width="354" height="58" rx="8" fill="#ffffff" stroke="#b9cbe0"/>
    <text x="90" y="338" class="button">Word 翻译</text>
    <rect x="58" y="380" width="354" height="58" rx="8" fill="#e6f7ff" stroke="#52caff" stroke-width="2"/>
    <text x="90" y="418" class="button" fill="#0876a6">PDF 翻译</text>
    <rect x="58" y="460" width="354" height="58" rx="8" fill="#ffffff" stroke="#b9cbe0"/>
    <text x="90" y="498" class="button">记忆库管理</text>
  </g>

  <g>
    <rect x="58" y="545" width="354" height="520" rx="10" fill="#ffffff" stroke="#d7e3f1"/>
    <text x="82" y="596" class="card-title">模型配置</text>
    <text x="82" y="648" class="label">模型用途</text>
    <rect x="82" y="671" width="306" height="56" rx="8" fill="#ffffff" stroke="#cbd8e8"/>
    <text x="102" y="708" class="small">PDF 图像翻译模型</text>
    <text x="82" y="772" class="label">配置来源</text>
    <rect x="82" y="795" width="306" height="56" rx="8" fill="#ffffff" stroke="#cbd8e8"/>
    <text x="102" y="832" class="small">跟随翻译模型</text>
    <text x="82" y="895" class="label">服务商</text>
    <rect x="82" y="918" width="306" height="56" rx="8" fill="#ffffff" stroke="#cbd8e8"/>
    <text x="102" y="955" class="small">OpenAI 兼容</text>
    <text x="82" y="1018" class="label">模型名称</text>
    <rect x="82" y="1041" width="306" height="56" rx="8" fill="#ffffff" stroke="#cbd8e8"/>
    <text x="102" y="1078" class="small">mimo-v2-pro</text>
  </g>

  <g>
    <rect x="58" y="1090" width="354" height="128" rx="10" fill="#ffffff" stroke="#d7e3f1"/>
    <text x="82" y="1140" class="card-title">吞吐调优</text>
    <text x="82" y="1188" class="label">并发数</text>
    <rect x="190" y="1154" width="198" height="56" rx="8" fill="#ffffff" stroke="#cbd8e8"/>
    <text x="214" y="1191" class="small">20</text>
  </g>

  <text x="505" y="128" class="small" fill="#078ed0">PDF Workspace</text>

  <g>
    <rect x="505" y="160" width="1468" height="130" rx="12" fill="#ffffff" stroke="#d7e3f1"/>
    <text x="540" y="214" class="card-title">源路径</text>
    <rect x="540" y="235" width="1212" height="50" rx="8" fill="#ffffff" stroke="#cbd8e8"/>
    <text x="562" y="268" class="small">/Users/lijianwei/Desktop/防火棉属地实验室检测报告/</text>
    <rect x="1772" y="232" width="84" height="56" rx="8" fill="#ffffff" stroke="#b9cbe0"/>
    <text x="1794" y="269" class="button">浏览</text>
    <rect x="1870" y="232" width="84" height="56" rx="8" fill="#ffffff" stroke="#b9cbe0"/>
    <text x="1892" y="269" class="button">扫描</text>
  </g>

  <g>
    <rect x="505" y="320" width="970" height="850" rx="12" fill="#ffffff" stroke="#d7e3f1"/>
    <text x="540" y="378" class="card-title">正在翻译</text>
    <text x="540" y="428" class="body">PDF #028 防火棉属地实验室检测报告</text>
    <rect x="1134" y="354" width="118" height="38" rx="19" fill="#e8f7ef"/>
    <text x="1165" y="381" class="badge" fill="#16784f">运行中</text>
    <rect x="1268" y="354" width="160" height="38" rx="19" fill="#edf7ff"/>
    <text x="1291" y="381" class="badge" fill="#087fc1">API 并发组 A</text>

    <text x="540" y="481" class="small muted">已完成 31 / 36 页；当前 3 个请求进行中；PDF #029 已排队，等待同组空闲槽自动开始。</text>

    <rect x="540" y="515" width="890" height="14" rx="7" fill="#e2ecf5"/>
    <rect x="540" y="515" width="766" height="14" rx="7" fill="url(#blue)"/>
    <text x="540" y="570" class="tiny muted">阶段 2 / 4：翻译页面</text>
    <text x="1304" y="570" class="tiny muted">86%</text>

    <g>
      <rect x="540" y="612" width="206" height="106" rx="10" fill="#f8fbff" stroke="#d7e3f1"/>
      <text x="564" y="657" class="title">31</text>
      <text x="564" y="694" class="tiny muted">页面完成</text>
      <rect x="768" y="612" width="206" height="106" rx="10" fill="#f8fbff" stroke="#d7e3f1"/>
      <text x="792" y="657" class="title">3</text>
      <text x="792" y="694" class="tiny muted">请求进行中</text>
      <rect x="996" y="612" width="206" height="106" rx="10" fill="#f8fbff" stroke="#d7e3f1"/>
      <text x="1020" y="657" class="title">2</text>
      <text x="1020" y="694" class="tiny muted">审核修复</text>
      <rect x="1224" y="612" width="206" height="106" rx="10" fill="#f8fbff" stroke="#d7e3f1"/>
      <text x="1248" y="657" class="title">0</text>
      <text x="1248" y="694" class="tiny muted">审核未通过</text>
    </g>

    <text x="540" y="780" class="card-title">运行日志</text>
    <rect x="540" y="810" width="890" height="310" rx="10" fill="#ffffff" stroke="#cbd8e8"/>
    <line x1="540" y1="866" x2="1430" y2="866" stroke="#edf2f7"/>
    <line x1="540" y1="922" x2="1430" y2="922" stroke="#edf2f7"/>
    <line x1="540" y1="978" x2="1430" y2="978" stroke="#edf2f7"/>
    <line x1="540" y1="1034" x2="1430" y2="1034" stroke="#edf2f7"/>
    <text x="565" y="846" class="mono muted">08:09:05</text>
    <text x="690" y="846" class="small" fill="#168a5b">OK 第 31 页已生成，审核通过</text>
    <text x="565" y="902" class="mono muted">08:08:54</text>
    <text x="690" y="902" class="small" fill="#a86d18">WARN 第 30 页第 1 轮审核未通过，已带反馈重试</text>
    <text x="565" y="958" class="mono muted">08:08:42</text>
    <text x="690" y="958" class="small" fill="#168a5b">OK 第 29 页已生成，质检通过</text>
    <text x="565" y="1014" class="mono muted">08:08:30</text>
    <text x="690" y="1014" class="small">INFO 第 32 页已提交图像生成</text>
    <text x="565" y="1070" class="mono muted">08:08:16</text>
    <text x="690" y="1070" class="small">INFO 检测到 PDF #029 可在空闲槽出现后启动</text>
  </g>

  <g>
    <rect x="1505" y="320" width="468" height="245" rx="12" fill="#ffffff" stroke="#d7e3f1"/>
    <text x="1540" y="380" class="card-title">执行操作</text>
    <rect x="1540" y="416" width="398" height="56" rx="8" fill="#ffffff" stroke="#4ec3ee" stroke-width="2"/>
    <text x="1667" y="453" class="button" fill="#087fc1">查看任务列表</text>
    <rect x="1890" y="428" width="28" height="28" rx="14" fill="#e55353"/>
    <text x="1898" y="450" class="badge" fill="#ffffff">2</text>
    <rect x="1540" y="486" width="398" height="56" rx="8" fill="url(#blue)"/>
    <text x="1654" y="523" class="button" fill="#ffffff">安排下一个任务</text>
  </g>

  <g>
    <rect x="1505" y="590" width="468" height="245" rx="12" fill="#ffffff" stroke="#d7e3f1"/>
    <text x="1540" y="650" class="card-title">任务控制</text>
    <rect x="1540" y="686" width="398" height="56" rx="8" fill="#ffffff" stroke="#efb5b5"/>
    <text x="1680" y="723" class="button" fill="#b43434">终止翻译</text>
    <rect x="1540" y="756" width="398" height="56" rx="8" fill="#ffffff" stroke="#b9cbe0"/>
    <text x="1630" y="793" class="button">导出历史诊断归档</text>
  </g>

  <g>
    <rect x="1505" y="860" width="468" height="310" rx="12" fill="#ffffff" stroke="#d7e3f1"/>
    <text x="1540" y="920" class="card-title">任务参数</text>
    <text x="1540" y="977" class="label">目标语言</text>
    <rect x="1540" y="1000" width="398" height="56" rx="8" fill="#ffffff" stroke="#cbd8e8"/>
    <text x="1564" y="1037" class="small">中文</text>
    <rect x="1540" y="1080" width="186" height="66" rx="10" fill="#f8fbff" stroke="#d7e3f1"/>
    <text x="1562" y="1118" class="body">3</text>
    <text x="1604" y="1118" class="tiny muted">页级重试</text>
    <rect x="1752" y="1080" width="186" height="66" rx="10" fill="#f8fbff" stroke="#d7e3f1"/>
    <text x="1774" y="1118" class="body">20</text>
    <text x="1826" y="1118" class="tiny muted">页生成并发</text>
  </g>
</svg>
