<svg width="1440" height="900" viewBox="0 0 1440 900" xmlns="http://www.w3.org/2000/svg">
  <defs>
    <filter id="panelShadow" x="-20%" y="-10%" width="140%" height="120%">
      <feDropShadow dx="-8" dy="0" stdDeviation="14" flood-color="#0f172a" flood-opacity="0.13"/>
    </filter>
    <style>
      text { font-family: -apple-system, BlinkMacSystemFont, "PingFang SC", "Microsoft YaHei", Arial, sans-serif; fill: #172033; }
      .muted { fill: #6b7280; }
      .weak { fill: #9ca3af; }
      .title { font-size: 18px; font-weight: 700; }
      .section { font-size: 13px; font-weight: 700; fill: #475569; }
      .body { font-size: 13px; }
      .small { font-size: 12px; }
      .tiny { font-size: 11px; }
      .button { font-size: 13px; font-weight: 600; }
      .taskTitle { font-size: 14px; font-weight: 700; }
    </style>
  </defs>

  <rect width="1440" height="900" fill="#f5f7fb"/>

  <rect x="0" y="0" width="1440" height="58" fill="#ffffff"/>
  <rect x="0" y="57" width="1440" height="1" fill="#e6eaf0"/>
  <text x="28" y="36" class="title">文档翻译助手</text>
  <text x="196" y="36" class="body muted">Excel 翻译</text>
  <text x="290" y="36" class="body muted">Word 翻译</text>
  <text x="384" y="36" class="body muted">PDF 翻译</text>

  <rect x="28" y="82" width="892" height="214" rx="8" fill="#ffffff" stroke="#e5eaf1"/>
  <text x="52" y="118" class="title">PDF 翻译</text>
  <text x="52" y="148" class="body muted">当前目标语言：法语；可执行 PDF：3 / 3；已启用翻译审核</text>
  <rect x="52" y="174" width="690" height="44" rx="6" fill="#f8fafc" stroke="#e8edf4"/>
  <text x="70" y="202" class="body muted">/Users/.../资料包/合同附件</text>
  <rect x="760" y="174" width="68" height="44" rx="6" fill="#ffffff" stroke="#dbe3ee"/>
  <text x="781" y="202" class="button muted">浏览</text>
  <rect x="836" y="174" width="58" height="44" rx="6" fill="#2563eb"/>
  <text x="853" y="202" class="button" fill="#ffffff">扫描</text>
  <rect x="52" y="238" width="842" height="1" fill="#eef2f7"/>
  <text x="52" y="270" class="body muted">文件列表、预览和进度区域保持原来的页面结构</text>

  <rect x="28" y="316" width="892" height="514" rx="8" fill="#ffffff" stroke="#e5eaf1"/>
  <text x="52" y="352" class="section">已选择文件</text>
  <rect x="52" y="374" width="820" height="58" rx="6" fill="#fbfcfe" stroke="#e7ecf3"/>
  <text x="72" y="399" class="body">施工总说明.pdf</text>
  <text x="72" y="420" class="small muted">12 页 · 待翻译</text>
  <rect x="52" y="446" width="820" height="58" rx="6" fill="#fbfcfe" stroke="#e7ecf3"/>
  <text x="72" y="471" class="body">合同技术附件.pdf</text>
  <text x="72" y="492" class="small muted">28 页 · 待翻译</text>
  <rect x="52" y="518" width="820" height="58" rx="6" fill="#fbfcfe" stroke="#e7ecf3"/>
  <text x="72" y="543" class="body">设备清单.pdf</text>
  <text x="72" y="564" class="small muted">8 页 · 待翻译</text>

  <rect x="1110" y="82" width="302" height="214" rx="8" fill="#ffffff" stroke="#e5eaf1"/>
  <text x="1134" y="118" class="section">执行操作</text>
  <rect x="1134" y="138" width="254" height="40" rx="6" fill="#ffffff" stroke="#cfd8e3"/>
  <text x="1214" y="164" class="button">关闭翻译列表</text>
  <rect x="1134" y="190" width="122" height="40" rx="6" fill="#ffffff" stroke="#d9e1ea"/>
  <text x="1163" y="216" class="button muted">安排新任务</text>
  <rect x="1266" y="190" width="122" height="40" rx="6" fill="#fff7f7" stroke="#f0caca"/>
  <text x="1296" y="216" class="button" fill="#b42318">终止翻译</text>

  <rect x="1110" y="316" width="302" height="194" rx="8" fill="#ffffff" stroke="#e5eaf1"/>
  <text x="1134" y="352" class="section">输出设置</text>
  <text x="1134" y="384" class="body muted">默认输出到源目录旁</text>
  <text x="1134" y="414" class="body muted">同时生成压缩 PDF</text>

  <rect x="1110" y="530" width="302" height="238" rx="8" fill="#ffffff" stroke="#e5eaf1"/>
  <text x="1134" y="566" class="section">翻译参数</text>
  <text x="1134" y="598" class="body muted">页面重试：3</text>
  <text x="1134" y="628" class="body muted">页面并发：留空</text>
  <text x="1134" y="658" class="body muted">启用翻译审核</text>

  <g filter="url(#panelShadow)">
    <rect x="650" y="58" width="440" height="842" fill="#ffffff"/>
    <rect x="650" y="58" width="1" height="842" fill="#d9e1ea"/>
  </g>
  <rect x="650" y="58" width="440" height="842" fill="#ffffff"/>
  <rect x="650" y="58" width="1" height="842" fill="#d9e1ea"/>
  <text x="678" y="100" class="title">翻译列表</text>
  <text x="678" y="126" class="small muted">当前 1/3</text>
  <rect x="964" y="78" width="96" height="34" rx="6" fill="#ffffff" stroke="#d7e0eb"/>
  <text x="986" y="100" class="button muted">清空历史</text>

  <text x="678" y="166" class="section">运行中</text>
  <rect x="678" y="184" width="384" height="100" rx="8" fill="#f8fbff" stroke="#d9e7ff"/>
  <rect x="678" y="184" width="4" height="100" rx="2" fill="#2563eb"/>
  <text x="696" y="212" class="taskTitle">PDF 翻译 · 3 个文件</text>
  <text x="696" y="236" class="small muted">正在翻译 · 目标语言：法语 · 安排 14:32</text>
  <rect x="696" y="253" width="208" height="6" rx="3" fill="#e4ebf5"/>
  <rect x="696" y="253" width="96" height="6" rx="3" fill="#2563eb"/>
  <text x="926" y="261" class="tiny muted">12 / 48 页</text>
  <text x="696" y="278" class="tiny muted">API：OpenAI 兼容 · sk-abcd····wxyz</text>
  <text x="1002" y="212" class="button muted">详情</text>
  <text x="1002" y="252" class="button" fill="#b42318">终止</text>

  <text x="678" y="324" class="section">排队中</text>
  <rect x="678" y="342" width="384" height="88" rx="8" fill="#ffffff" stroke="#e6edf5"/>
  <text x="696" y="370" class="taskTitle">Word 翻译 · 5 个文件</text>
  <text x="696" y="394" class="small muted">等待同类型任务结束 · 目标语言：英语 · 安排 14:41</text>
  <text x="696" y="418" class="tiny muted">API：Azure OpenAI · sk-9f12····3acd</text>
  <text x="948" y="370" class="button muted">上移</text>
  <text x="998" y="370" class="button muted">下移</text>
  <text x="948" y="406" class="button muted">详情</text>
  <text x="998" y="406" class="button muted">取消</text>

  <rect x="678" y="444" width="384" height="88" rx="8" fill="#fffaf0" stroke="#f5ddaa"/>
  <text x="696" y="472" class="taskTitle">Excel 翻译 · 2 个文件</text>
  <text x="696" y="496" class="small muted">API 组暂时阻塞 · 目标语言：法语 · 安排 14:45</text>
  <text x="696" y="520" class="tiny muted">API：OpenAI 兼容 · sk-abcd····wxyz</text>
  <text x="948" y="472" class="button muted">上移</text>
  <text x="998" y="472" class="button muted">下移</text>
  <text x="948" y="508" class="button muted">详情</text>
  <text x="998" y="508" class="button muted">取消</text>

  <text x="678" y="572" class="section">历史</text>
  <rect x="678" y="590" width="384" height="78" rx="8" fill="#ffffff" stroke="#e6edf5"/>
  <text x="696" y="618" class="taskTitle">PDF 翻译 · 1 个文件</text>
  <text x="696" y="642" class="small muted">已完成 · 目标语言：英语 · 14:18</text>
  <text x="696" y="664" class="tiny muted">输出：译文(英语)_设备资料.pdf</text>
  <text x="1002" y="618" class="button muted">详情</text>
  <text x="974" y="650" class="button muted">打开输出</text>

  <rect x="678" y="682" width="384" height="78" rx="8" fill="#ffffff" stroke="#e6edf5"/>
  <text x="696" y="710" class="taskTitle">Word 翻译 · 1 个文件</text>
  <text x="696" y="734" class="small muted">失败 · 目标语言：法语 · 13:56</text>
  <text x="696" y="756" class="tiny muted">摘要：模型级不可用，未写入结果</text>
  <text x="1002" y="710" class="button muted">详情</text>
</svg>
